<?xml version="1.0" encoding="utf-8"?>
<!-- Generator: Adobe Illustrator 27.2.0, SVG Export Plug-In . SVG Version: 6.00 Build 0)  -->
<svg version="1.1" id="Layer_1" xmlns="http://www.w3.org/2000/svg" xmlns:xlink="http://www.w3.org/1999/xlink" x="0px" y="0px"
	 viewBox="0 0 1200 490.1" style="enable-background:new 0 0 1200 490.1;" xml:space="preserve">
<style type="text/css">
	.st0{fill-rule:evenodd;clip-rule:evenodd;fill:url(#SVGID_1_);}
	.st1{fill-rule:evenodd;clip-rule:evenodd;fill:url(#SVGID_00000169552247610312069360000004251599459748736650_);}
</style>
<path d="M12,444.3l18.5-22c10.7,8.7,24,14.8,37.7,14.8s20-5.2,20-12.4c0-10-8.5-12.6-22-18.3L48,398.6c-15.9-5.9-30.3-18-30.3-38.7
	c0-23.5,21.4-42.2,52-42.2c17.2,0,34.4,6.5,47.3,18.7l-16.3,20.2c-9.8-7.2-18.7-11.3-32.7-11.3c-10.7,0-17.9,4.6-17.9,12.8
	c0,8.3,9.6,11.7,23.3,16.7l17.2,7.4c18.7,6.9,30.5,18.5,30.5,38.5c0,23.5-19.8,43.9-55.1,43.9C46.8,464.7,27.2,457.8,12,444.3
	L12,444.3z"/>
<path d="M135.1,408.2c0-35.4,27.2-56.5,56.2-56.5c33.3,0,51,22.4,51,51.7c0,5.9-1.1,11.7-1.5,14.3h-73.6c3,15.6,14.6,22.6,32.2,22.6
	c9.8,0,18.3-2.6,27.9-7.6l10.7,19.3c-12.4,7.8-28.5,12.6-42.9,12.6C161.2,464.7,135.1,444.1,135.1,408.2L135.1,408.2z M167.5,396.3
	h46.2c-1.5-13.3-8.9-20.2-21.3-20.2C179.9,376,170.8,382.8,167.5,396.3z"/>
<path d="M258.6,408.2c0-35.9,29.2-56.5,62.5-56.5c17,0,31.4,6.1,40.5,14.6L346.8,386c-8.3-5.9-15.9-8.5-24-8.5
	c-18.5,0-31.4,12-31.4,30.7c0,18.7,12.4,30.7,30.3,30.7c11.3,0,20.7-4.8,28.5-10.2l12.8,20.2c-13.1,10.9-29.6,15.9-44.4,15.9
	C284.8,464.7,258.6,444.1,258.6,408.2L258.6,408.2z"/>
<path d="M372.4,408.2c0-35.9,26.6-56.5,55.1-56.5c28.5,0,55.1,20.7,55.1,56.5c0,35.9-26.6,56.5-55.1,56.5
	C399,464.7,372.4,444.1,372.4,408.2z M449.7,408.2c0-18.7-7.4-30.7-22.2-30.7c-14.8,0-22.2,12-22.2,30.7s7.4,30.7,22.2,30.7
	C442.3,438.9,449.7,426.9,449.7,408.2z"/>
<path d="M502.2,354.3h26.1l2.4,14.3h0.9c9.4-9.1,21.1-17,37.2-17c24.4,0,35.3,16.7,35.3,43.9v66.5h-32v-62.4
	c0-14.3-4.1-20.9-15.9-20.9c-8.7,0-14.4,3.9-22,11.3v72h-32V354.3z"/>
<path d="M622.5,408.2c0-35.2,22.7-56.5,46.2-56.5c12,0,20,4.1,27.2,11.5h0.9l-1.5-16.7v-36.7h32v152.4h-26.1l-2.4-11.1h-0.6
	c-8.1,7.8-19.2,13.7-30.1,13.7C640.6,464.7,622.5,443.4,622.5,408.2L622.5,408.2z M695.2,428.7V385c-5.9-5.2-11.8-7.2-18.1-7.2
	c-11.8,0-21.8,9.6-21.8,30c0,20.4,7.6,30.9,20.9,30.9C683.5,438.6,689.6,435.8,695.2,428.7L695.2,428.7z"/>
<path d="M754.9,309.7h32v125.4h63.2v27h-95.2V309.7z"/>
<g>
	<path d="M894.9,337.3c12.4,0,21.4-7.6,21.4-19.3c0-11.8-8.9-20-21.4-20c-12.4,0-21.3,8.3-21.3,20
		C873.6,329.7,882.5,337.3,894.9,337.3z"/>
	<polygon points="939.3,354.3 912.3,354.3 853.4,354.3 853.4,378.7 853.4,379.3 880.3,379.3 880.3,462.1 912.3,462.1 912.3,378.7 
		939.3,378.7 	"/>
</g>
<path d="M958.4,354.3h32.2l17,50.9c3.5,10.9,6.5,22,9.8,33.3h0.9c3.3-11.3,6.1-22.4,9.6-33.3l17-50.9h30.7l-39.6,107.8h-36.8
	L958.4,354.3L958.4,354.3z"/>
<path d="M1080.8,408.2c0-35.4,27.2-56.5,56.2-56.5c33.3,0,51,22.4,51,51.7c0,5.9-1.1,11.7-1.5,14.3h-73.6
	c3,15.6,14.6,22.6,32.2,22.6c9.8,0,18.3-2.6,27.9-7.6l10.7,19.3c-12.4,7.8-28.5,12.6-42.9,12.6
	C1107,464.7,1080.9,444.1,1080.8,408.2L1080.8,408.2z M1113.3,396.3h46.2c-1.5-13.3-8.9-20.2-21.3-20.2
	C1125.7,376,1116.5,382.8,1113.3,396.3z"/>
<g>
	<linearGradient id="SVGID_1_" gradientUnits="userSpaceOnUse" x1="542.1652" y1="-8.7238" x2="663.1765" y2="260.4004">
		<stop  offset="0.139" style="stop-color:#FF467E"/>
		<stop  offset="0.8602" style="stop-color:#9500FA"/>
	</linearGradient>
	<path class="st0" d="M695.7,59.6L695.7,59.6c44.2,6.9,18.3,24.2,11.3,28.9c-0.6,0.4-1.1,0.7-1.3,0.9c-0.8,0.6-1.5,0.9-2.2,1.2
		c-0.4,0-2.5,0-3.1-1.9c-13.7-38.6-49-67.6-92.5-71.1c-59.1-4.7-110.8,39.2-115.5,98.1c-1.2,15.1,0.8,29.7,5.4,43.1
		c0.8,2.5-1.4,3.2-1.7,3.3c0,0,0,0,0,0c-13.5,2.3-41.3,3.7-12.2-32.2c0,0-102.3,66.1,23.8,49.9c33-5.1,118.6-21.9,198.2-67.8
		C818.9,44.9,704,57.8,695.7,59.6z"/>
	
		<linearGradient id="SVGID_00000029026076211212875280000010730616602824780223_" gradientUnits="userSpaceOnUse" x1="548.42" y1="-17.0717" x2="669.4314" y2="252.0525">
		<stop  offset="0.1478" style="stop-color:#FF467E"/>
		<stop  offset="0.8747" style="stop-color:#9500FA"/>
	</linearGradient>
	<path style="fill-rule:evenodd;clip-rule:evenodd;fill:url(#SVGID_00000029026076211212875280000010730616602824780223_);" d="
		M603.7,180.3c-51,30.8-44.5,41.6-28.6,48.3c2.1,0.9,12.9,2.9,21.8,2.7c0.2,0,0.4,0,0.5,0c56.2,1,104.2-41.8,108.8-98.5
		c0-0.4,0-0.8,0.1-1.2C694.2,136,649.9,152.4,603.7,180.3L603.7,180.3z"/>
</g>
</svg>
