<?xml version="1.0" encoding="utf-8"?>
<!-- Generator: Adobe Illustrator 27.2.0, SVG Export Plug-In . SVG Version: 6.00 Build 0)  -->
<svg version="1.1" id="Layer_1" xmlns="http://www.w3.org/2000/svg" xmlns:xlink="http://www.w3.org/1999/xlink" x="0px" y="0px"
	 viewBox="0 0 1434.1 248.2" style="enable-background:new 0 0 1434.1 248.2;" xml:space="preserve">
<style type="text/css">
	.st0{fill-rule:evenodd;clip-rule:evenodd;}
</style>
<path d="M343,175.7l17-20.2c9.8,8,22,13.6,34.7,13.6s18.4-4.8,18.4-11.4c0-9.2-7.8-11.6-20.2-16.8l-16.8-7.2
	c-14.6-5.4-27.9-16.6-27.9-35.6c0-21.6,19.6-38.8,47.9-38.8c15.8,0,31.7,6,43.5,17.2l-15,18.6c-9-6.6-17.2-10.4-30-10.4
	c-9.8,0-16.4,4.2-16.4,11.8c0,7.6,8.8,10.8,21.4,15.4l15.8,6.8c17.2,6.4,28,17,28,35.4c0,21.6-18.2,40.4-50.7,40.4
	C375.1,194.5,357.1,188.1,343,175.7L343,175.7z"/>
<path d="M456.2,142.5c0-32.6,25-52,51.7-52c30.7,0,46.9,20.6,46.9,47.6c0,5.4-1,10.8-1.4,13.2h-67.7c2.8,14.4,13.4,20.8,29.6,20.8
	c9,0,16.8-2.4,25.6-7l9.8,17.8c-11.4,7.2-26.2,11.6-39.5,11.6C480.3,194.5,456.2,175.5,456.2,142.5L456.2,142.5z M486.1,131.5h42.5
	c-1.4-12.2-8.2-18.6-19.6-18.6C497.5,112.9,489.1,119.1,486.1,131.5z"/>
<path d="M569.9,142.5c0-33,26.8-52,57.5-52c15.6,0,28.8,5.6,37.3,13.4L651,122.1c-7.6-5.4-14.6-7.8-22-7.8c-17,0-28.8,11-28.8,28.2
	s11.4,28.2,27.9,28.2c10.4,0,19-4.4,26.2-9.4l11.8,18.6c-12,10-27.2,14.6-40.9,14.6C593.9,194.4,569.9,175.4,569.9,142.5
	L569.9,142.5z"/>
<path d="M674.5,142.5c0-33,24.4-52,50.7-52s50.7,19,50.7,52c0,33-24.4,52-50.7,52S674.5,175.5,674.5,142.5z M745.6,142.5
	c0-17.2-6.8-28.2-20.4-28.2s-20.4,11-20.4,28.2c0,17.2,6.8,28.2,20.4,28.2S745.6,159.7,745.6,142.5z"/>
<path d="M793.9,92.9h24l2.2,13.2h0.8c8.6-8.4,19.4-15.6,34.3-15.6c22.4,0,32.4,15.4,32.4,40.4v61.2h-29.5v-57.4
	c0-13.2-3.8-19.2-14.6-19.2c-8,0-13.2,3.6-20.2,10.4v66.2h-29.4V92.9z"/>
<path d="M904.6,142.5c0-32.4,20.8-52,42.5-52c11,0,18.4,3.8,25,10.6h0.8l-1.4-15.4V51.9h29.4v140.2h-24l-2.2-10.2h-0.6
	c-7.4,7.2-17.6,12.6-27.6,12.6C921.2,194.5,904.6,174.9,904.6,142.5L904.6,142.5z M971.5,161.3v-40.2c-5.4-4.8-10.8-6.6-16.6-6.6
	c-10.8,0-20,8.8-20,27.6c0,18.8,7,28.4,19.2,28.4C960.7,170.4,966.3,167.9,971.5,161.3L971.5,161.3z"/>
<path d="M1026.3,51.9h29.4v115.4h58.1v24.8h-87.5V51.9z"/>
<g>
	<polygon points="1196,92.9 1171.2,92.9 1116.9,92.9 1116.9,115.3 1116.9,115.9 1141.7,115.9 1141.7,192.1 1171.2,192.1 
		1171.2,115.3 1196,115.3 	"/>
	<path d="M1155.1,77.3c11.4,0,19.6-7,19.6-17.8c0-10.8-8.2-18.4-19.6-18.4c-11.4,0-19.6,7.6-19.6,18.4
		C1135.5,70.3,1143.7,77.3,1155.1,77.3z"/>
</g>
<path d="M1213.5,92.9h29.6l15.6,46.8c3.2,10,6,20.2,9,30.6h0.8c3-10.4,5.6-20.6,8.8-30.6l15.6-46.8h28.2l-36.5,99.2H1251
	L1213.5,92.9L1213.5,92.9z"/>
<path d="M1326.1,142.5c0-32.6,25-52,51.7-52c30.7,0,46.9,20.6,46.9,47.6c0,5.4-1,10.8-1.4,13.2h-67.7c2.8,14.4,13.4,20.8,29.6,20.8
	c9,0,16.8-2.4,25.6-7l9.8,17.8c-11.4,7.2-26.2,11.6-39.5,11.6C1350.2,194.5,1326.2,175.5,1326.1,142.5L1326.1,142.5z M1356,131.5
	h42.5c-1.4-12.2-8.2-18.6-19.6-18.6C1367.4,112.9,1359,119.1,1356,131.5z"/>
<g>
	<path class="st0" d="M220.9,64.9L220.9,64.9c37.3,5.8,15.4,20.3,9.5,24.3c-0.5,0.3-0.9,0.6-1.1,0.8c-0.7,0.5-1.2,0.8-1.8,1
		c-0.3,0-2.1,0-2.6-1.6c-11.5-32.5-41.3-56.9-77.9-59.9c-49.8-4-93.3,33-97.3,82.7c-1,12.7,0.7,25,4.6,36.3c0.7,2.1-1.2,2.7-1.4,2.8
		c0,0,0,0,0,0c-11.4,2-34.8,3.2-10.3-27.1c0,0-86.2,55.7,20,42c27.8-4.3,99.9-18.4,167-57.1C324.7,52.5,227.8,63.3,220.9,64.9z"/>
	<path class="st0" d="M143.4,166.5c-43,26-37.5,35.1-24.1,40.7c1.8,0.8,10.9,2.5,18.3,2.3c0.2,0,0.3,0,0.5,0
		c47.3,0.8,87.8-35.2,91.6-83c0-0.3,0-0.6,0.1-1C219.6,129.1,182.3,143,143.4,166.5L143.4,166.5z"/>
</g>
</svg>
