<?xml version="1.0" encoding="utf-8"?>
<!-- Generator: Adobe Illustrator 27.2.0, SVG Export Plug-In . SVG Version: 6.00 Build 0)  -->
<svg version="1.1" id="Layer_1" xmlns="http://www.w3.org/2000/svg" xmlns:xlink="http://www.w3.org/1999/xlink" x="0px" y="0px"
	 viewBox="0 0 1200 869.4" style="enable-background:new 0 0 1200 869.4;" xml:space="preserve">
<style type="text/css">
	.st0{fill-rule:evenodd;clip-rule:evenodd;fill:#FFFFFF;}
</style>
<g>
	<path class="st0" d="M964.8,190L964.8,190c168.6,26.3,69.9,92.1,43,110.1c-2.3,1.5-4,2.7-5.1,3.5c-3,2.2-5.6,3.5-8.3,4.4
		c-1.6,0-9.3-0.1-11.9-7.3C930.3,153.3,795.6,43,629.6,29.6c-225.2-18-422.4,149.6-440.5,374.3c-4.6,57.5,3,113.1,20.6,164.4
		c3,9.7-5.3,12.3-6.4,12.7c-0.1,0-0.1,0-0.1,0c-51.4,8.9-157.5,14.3-46.5-122.7c0,0-390.1,252,90.6,190.2
		C373,629.2,699.5,565.2,1003.3,390C1434.5,133.9,996.1,182.8,964.8,190z"/>
	<path class="st0" d="M613.8,650.2C419.2,767.7,444,808.9,504.9,834.4c8.2,3.5,49.4,11.2,83,10.5c0.7,0,1.4-0.1,2-0.1
		c214.3,3.8,397.3-159.4,414.7-375.5c0.1-1.5,0.1-2.9,0.3-4.4C958.9,481,789.9,543.6,613.8,650.2L613.8,650.2z"/>
</g>
</svg>
